<svg width="50" height="50" viewBox="0 0 50 50" fill="none" xmlns="http://www.w3.org/2000/svg">
<g clip-path="url(#clip0_0_557)">
<rect width="50" height="50" rx="19" fill="#3CC5FF"/>
<path d="M33.875 23.1563H33.0938V16.125C33.0938 15.9178 33.0114 15.7191 32.8649 15.5726C32.7184 15.4261 32.5197 15.3438 32.3125 15.3438H16.6875C16.4803 15.3438 16.2816 15.4261 16.1351 15.5726C15.9886 15.7191 15.9063 15.9178 15.9063 16.125V23.1563H15.125C14.9178 23.1563 14.7191 23.2386 14.5726 23.3851C14.4261 23.5316 14.3438 23.7303 14.3438 23.9375V33.3125C14.3438 33.5197 14.4261 33.7184 14.5726 33.8649C14.7191 34.0114 14.9178 34.0938 15.125 34.0938H16.6875V34.875C16.6875 35.0822 16.7698 35.2809 16.9163 35.4274C17.0628 35.5739 17.2615 35.6563 17.4688 35.6563C17.676 35.6563 17.8747 35.5739 18.0212 35.4274C18.1677 35.2809 18.25 35.0822 18.25 34.875V34.0938H30.75V34.875C30.75 35.0822 30.8323 35.2809 30.9788 35.4274C31.1253 35.5739 31.3241 35.6563 31.5313 35.6563C31.7385 35.6563 31.9372 35.5739 32.0837 35.4274C32.2302 35.2809 32.3125 35.0822 32.3125 34.875V34.0938H33.875C34.0822 34.0938 34.2809 34.0114 34.4274 33.8649C34.5739 33.7184 34.6563 33.5197 34.6563 33.3125V23.9375C34.6563 23.7303 34.5739 23.5316 34.4274 23.3851C34.2809 23.2386 34.0822 23.1563 33.875 23.1563ZM17.4688 16.9063H31.5313V23.1563H29.9688C29.7616 23.1563 29.5628 23.2386 29.4163 23.3851C29.2698 23.5316 29.1875 23.7303 29.1875 23.9375V26.2813H19.8125V23.9375C19.8125 23.7303 19.7302 23.5316 19.5837 23.3851C19.4372 23.2386 19.2385 23.1563 19.0313 23.1563H17.4688V16.9063ZM19.8125 27.8438H29.1875V29.4063H19.8125V27.8438ZM33.0938 32.5313H15.9063V24.7188H18.25V30.1875C18.25 30.3947 18.3323 30.5934 18.4788 30.7399C18.6253 30.8864 18.8241 30.9688 19.0313 30.9688H29.9688C30.176 30.9688 30.3747 30.8864 30.5212 30.7399C30.6677 30.5934 30.75 30.3947 30.75 30.1875V24.7188H33.0938V32.5313Z" fill="white"/>
</g>
<defs>
<clipPath id="clip0_0_557">
<rect width="50" height="50" fill="white"/>
</clipPath>
</defs>
</svg>
