<svg width="50" height="50" viewBox="0 0 50 50" fill="none" xmlns="http://www.w3.org/2000/svg">
<g clip-path="url(#clip0_0_565)">
<rect width="50" height="50" rx="19" fill="#FF3B53"/>
<g clip-path="url(#clip1_0_565)">
<path d="M25.5 14.5625C25.397 14.5625 25.2963 14.593 25.2106 14.6503C25.125 14.7075 25.0582 14.7888 25.0188 14.884C24.9794 14.9792 24.9691 15.0839 24.9892 15.1849C25.0093 15.286 25.0589 15.3788 25.1317 15.4516C25.2046 15.5245 25.2974 15.5741 25.3984 15.5942C25.4994 15.6143 25.6041 15.6039 25.6993 15.5645C25.7945 15.5251 25.8758 15.4583 25.9331 15.3727C25.9903 15.287 26.0208 15.1863 26.0208 15.0833C26.0208 14.9452 25.966 14.8127 25.8683 14.715C25.7706 14.6174 25.6381 14.5625 25.5 14.5625ZM30.7083 13H20.2917C19.601 13 18.9386 13.2744 18.4502 13.7627C17.9619 14.2511 17.6875 14.9135 17.6875 15.6042V35.3958C17.6875 35.7378 17.7549 36.0765 17.8857 36.3924C18.0166 36.7084 18.2084 36.9954 18.4502 37.2373C18.6921 37.4791 18.9791 37.6709 19.2951 37.8018C19.611 37.9326 19.9497 38 20.2917 38H30.7083C31.0503 38 31.389 37.9326 31.7049 37.8018C32.0209 37.6709 32.3079 37.4791 32.5498 37.2373C32.7916 36.9954 32.9834 36.7084 33.1143 36.3924C33.2451 36.0765 33.3125 35.7378 33.3125 35.3958V15.6042C33.3125 14.9135 33.0381 14.2511 32.5498 13.7627C32.0614 13.2744 31.399 13 30.7083 13V13ZM32.2708 35.3958C32.2708 35.8102 32.1062 36.2077 31.8132 36.5007C31.5202 36.7937 31.1227 36.9583 30.7083 36.9583H20.2917C19.8773 36.9583 19.4798 36.7937 19.1868 36.5007C18.8938 36.2077 18.7292 35.8102 18.7292 35.3958V31.75H32.2708V35.3958ZM32.2708 30.7083H18.7292V17.1667H32.2708V30.7083ZM32.2708 16.125H18.7292V15.6042C18.7292 15.1898 18.8938 14.7923 19.1868 14.4993C19.4798 14.2063 19.8773 14.0417 20.2917 14.0417H30.7083C31.1227 14.0417 31.5202 14.2063 31.8132 14.4993C32.1062 14.7923 32.2708 15.1898 32.2708 15.6042V16.125ZM25.5 35.9167C25.809 35.9167 26.1111 35.825 26.3681 35.6533C26.625 35.4816 26.8253 35.2376 26.9436 34.9521C27.0618 34.6666 27.0928 34.3524 27.0325 34.0493C26.9722 33.7462 26.8234 33.4678 26.6049 33.2493C26.3863 33.0308 26.1079 32.882 25.8048 32.8217C25.5017 32.7614 25.1876 32.7923 24.9021 32.9106C24.6165 33.0289 24.3725 33.2291 24.2008 33.4861C24.0291 33.743 23.9375 34.0451 23.9375 34.3542C23.9375 34.7686 24.1021 35.166 24.3951 35.459C24.6882 35.752 25.0856 35.9167 25.5 35.9167ZM25.5 33.8333C25.603 33.8333 25.7037 33.8639 25.7894 33.9211C25.875 33.9783 25.9418 34.0597 25.9812 34.1549C26.0206 34.25 26.0309 34.3547 26.0108 34.4558C25.9907 34.5568 25.9411 34.6496 25.8683 34.7225C25.7954 34.7953 25.7026 34.8449 25.6016 34.865C25.5006 34.8851 25.3959 34.8748 25.3007 34.8354C25.2055 34.7959 25.1242 34.7292 25.0669 34.6435C25.0097 34.5579 24.9792 34.4572 24.9792 34.3542C24.9792 34.216 25.034 34.0836 25.1317 33.9859C25.2294 33.8882 25.3619 33.8333 25.5 33.8333Z" fill="white"/>
</g>
</g>
<defs>
<clipPath id="clip0_0_565">
<rect width="50" height="50" fill="white"/>
</clipPath>
<clipPath id="clip1_0_565">
<rect width="25" height="25" fill="white" transform="translate(13 13)"/>
</clipPath>
</defs>
</svg>
